<svg width="137" height="311" viewBox="0 0 137 311" fill="none" xmlns="http://www.w3.org/2000/svg">
<g clip-path="url(#clip0_117_199)">
<path d="M114.847 290.22C114.847 290.22 126.958 289.191 126.186 265.51C125.414 241.829 122.833 204.252 122.833 204.252C122.833 204.252 122.318 181.342 102.478 178.514C82.638 175.686 69.7544 171.308 81.0862 145.314C92.418 119.319 78.7699 100.787 78.7699 100.787C78.7699 100.787 38.0527 76.5924 39.8618 128.589C39.8618 128.589 34.336 127.047 39.8013 140.687C45.2665 154.327 45.0167 144.55 45.0167 144.55L49.1422 159.476L51.2012 143.514C51.2012 143.514 58.6724 179.036 31.1037 181.349C3.53501 183.663 0.688818 197.893 0.431449 212.402C0.174081 226.912 0.43145 283.279 11.7708 289.199C23.1102 295.119 23.1102 301.81 23.1102 301.81C23.1102 301.81 25.593 310.271 22.8831 309.984C20.1731 309.697 23.4659 297.917 23.4659 297.917C23.4659 297.917 25.3129 285.547 27.4249 284.209C31.4973 281.638 31.293 275.718 31.3838 272.822C31.4746 269.926 30.8993 241.262 21.142 234.117C11.3847 226.972 14.8592 217.03 19.015 220.704C23.1707 224.379 22.5878 253.715 22.8831 259.507C23.1783 265.299 21.0436 278.908 33.4125 287.21C45.7813 295.512 58.1501 298.695 75.3484 292.616C92.5467 286.537 105.014 286.923 106.467 291.943C107.921 296.964 103.856 292.616 103.856 292.616C103.856 292.616 90.7148 281.902 103.757 248.022C116.8 214.141 117.67 210.572 111.97 217.423C106.27 224.273 104.915 250.819 104.915 250.819C104.915 250.819 111.97 278.039 90.518 279.007C69.0656 279.974 63.2899 261.533 63.2899 261.533C63.2899 261.533 56.0155 205.552 64.5238 221.475C73.0321 237.399 66.5524 306.513 66.5524 306.513" stroke="#31A847" stroke-opacity="0.2" stroke-width="3" stroke-miterlimit="10"/>
<path d="M85.5446 126.646C85.5446 126.646 61.5639 136.944 68.528 138.872C74.7806 140.603 78.4821 105.732 79.171 98.625C79.2996 97.3018 79.6327 96.0089 80.2307 94.8218C81.1769 92.9769 82.8044 91.3967 85.0147 95.1545C88.686 101.385 75.3483 92.8635 75.3483 92.8635C75.3483 92.8635 72.2447 91.4799 76.4535 90.8674C79.9809 90.3533 86.4227 90.7011 88.4059 90.8296C88.8223 90.8523 89.231 90.754 89.5944 90.5423C90.8055 89.824 93.2202 88.1455 89.9729 87.8431C86.4681 87.5179 79.7084 87.7448 77.6797 87.8204C77.271 87.8355 76.8698 87.7523 76.5064 87.5784C75.1288 86.9131 72.1615 85.2345 76.9303 85.2118C81.9793 85.1816 87.9896 85.2043 89.7155 85.2118C90.0561 85.2118 90.3741 85.1211 90.6693 84.9472C91.8047 84.2667 94.2724 82.505 89.496 82.4748C84.7195 82.4445 78.3232 82.4672 76.4005 82.4748C75.9766 82.4748 75.5678 82.3462 75.2196 82.0967C74.1977 81.3558 72.6383 79.7906 77.8311 79.7377C84.6287 79.6697 90.427 79.7377 90.427 79.7377C90.427 79.7377 95.8696 79.8965 96.0664 74.3997C96.2633 68.9029 95.7788 63.9429 99.3517 61.7578C102.925 59.5727 114.203 50.5298 115.233 44.2239C116.262 37.9181 118.488 29.9035 113.749 19.2577C109.011 8.61186 99.3214 3.59138 99.3214 3.59138C99.3214 3.59138 86.5968 -3.48567 69.883 3.3948C53.1692 10.2753 51.6174 26.7884 51.6174 26.7884C51.6174 26.7884 48.9453 48.5412 62.3436 55.0361C74.1598 60.7673 72.1539 71.6021 71.5105 74.0821C71.4423 74.3316 71.3666 74.5736 71.2531 74.808C70.7308 75.9043 69.0957 80.7811 83.3418 77.1065C97.5879 73.4319 87.1721 59.7541 84.061 55.8678C83.5084 55.1722 83.198 54.3254 83.1753 53.4407C83.0012 45.4261 82.4486 6.19235 88.3605 19.4543C91.4944 25.5408 82.6833 30.7579 80.2988 32.0281C79.7765 32.3079 79.2996 32.633 78.8455 33.011C75.4467 35.854 64.5085 46.9156 87.7171 55.5805C88.0729 55.7166 88.4211 55.8905 88.7314 56.1097C90.5254 57.3724 94.9991 61.5234 77.3391 62.1812" stroke="#31A847" stroke-opacity="0.2" stroke-width="3" stroke-miterlimit="10"/>
</g>
<path d="M206 239.578C186.64 237.083 155.862 256.366 120.242 271.794C107.972 277.109 101.185 293.347 115.478 290.171" stroke="#31A847" stroke-opacity="0.2" stroke-width="3"/>
<defs>
<clipPath id="clip0_117_199">
<rect width="126.595" height="310.362" fill="white"/>
</clipPath>
</defs>
</svg>
