<svg width="390" height="1086" viewBox="0 0 390 1086" fill="none" xmlns="http://www.w3.org/2000/svg">
<g clip-path="url(#clip0_178_12)">
<path d="M0 1006.29H43.4983C44.3197 1006.29 44.8447 1007.17 44.4637 1007.91C42.5754 1011.56 39.5185 1020.76 50.7636 1028.82C65.1755 1039.14 66.0392 1045.52 66.0392 1045.52C66.0392 1045.52 68.7743 1055.26 80.1633 1048.14C89.3676 1042.38 83.127 1043.65 80.4004 1044.35C79.2488 1044.64 78.2073 1045.32 77.5807 1046.34C76.6407 1047.86 76.4375 1050.31 80.8915 1053.36C86.8189 1057.42 84.7612 1066.99 83.5419 1071.08C83.1947 1072.23 82.5596 1073.26 81.7044 1074.1C78.6984 1077.05 71.992 1084.61 85.0068 1082.14C101.061 1079.09 97.3103 1055.1 97.3103 1055.1C97.3103 1055.1 95.4389 1046.53 93.847 1054.81C92.2636 1063.1 88.6563 1061.93 88.5124 1059.76C88.3684 1057.58 90.8156 1054.09 90.8156 1054.09C90.8156 1054.09 92.543 1050.75 87.9366 1046.24C83.3217 1041.73 67.1824 1027.64 66.7505 1022.56C66.3187 1017.47 55.7934 1008.46 57.6732 1015.44C59.5445 1022.41 77.1319 1003.37 77.1319 1003.37C77.1319 1003.37 87.2168 992.76 99.6135 1011.07C105.812 1020.08 102.636 1022.7 102.636 1022.7C102.636 1022.7 99.0292 1024.44 105.228 1013.99C106.599 1011.95 107.573 1012.64 108.2 1013.84C108.996 1015.35 109.097 1017.14 108.699 1018.8C107.996 1021.76 106.32 1027.16 103.068 1029.82C99.1986 1032.99 98.8768 1055.05 98.8768 1062.11C98.8768 1063.09 99.8506 1063.75 100.765 1063.4C103.195 1062.47 107.683 1061.34 112.434 1063.1C118.149 1065.21 115.931 1054.19 114.881 1049.91C114.584 1048.71 114.491 1047.46 114.601 1046.22C115.05 1041.29 116.684 1028.65 121.943 1021.97C124.246 1018.63 128.285 1007.29 112.865 995.517C97.4458 983.744 100.469 980.26 75.9718 981.857C64.007 981.49 69.4856 963.978 69.4856 963.978C69.4856 963.978 74.5323 948.431 69.7735 942.181C65.0147 935.931 68.19 944.648 68.19 944.648C68.19 944.648 73.3807 956.277 64.2949 949.737C57.326 944.717 65.5566 933.276 69.7565 928.23C70.8827 926.881 72.2376 925.728 73.7871 924.908C76.7847 923.32 82.3395 919.41 81.8907 912.451C81.8229 911.435 81.3234 910.479 80.5105 909.873C78.0718 908.054 73.5077 901.472 75.8194 895.102C78.5544 887.546 87.2084 882.603 94.7022 883.764C102.196 884.925 105.803 887.691 103.348 888.853C100.901 890.014 104.499 895.102 104.499 895.102C104.499 895.102 107.666 898.005 106.227 899.465C105.134 900.567 107.192 902.667 108.25 903.623C108.75 904.076 109.123 904.656 109.292 905.314C109.563 906.355 109.504 907.687 107.378 907.602C104.482 907.482 105.727 912.451 106.21 914.074C106.405 914.731 106.489 915.414 106.388 916.089C106.21 917.301 105.448 918.77 102.763 918.505C98.2925 918.069 97.2849 922.287 97.2849 922.287C97.2849 922.287 96.7091 933.626 86.1838 927.231C75.6585 920.836 83.4487 911.973 86.6156 912.699C89.1051 913.271 87.3269 908.635 86.4463 906.629C86.1076 905.86 85.9552 905.015 86.0737 904.187C86.2854 902.752 87.1237 901.309 90.2144 904.708C92.8732 907.636 94.3127 906.193 95.0748 904.366C95.7184 902.804 95.4982 901.036 94.6599 899.576C93.5168 897.595 92.5261 894.257 96.8446 892.105C103.331 888.87 95.8369 887.128 95.8369 887.128C95.8369 887.128 79.4097 883.303 79.1218 913.399C79.1218 913.929 79.1218 914.466 79.1895 914.996C79.2996 915.969 79.181 918.437 75.3791 918.667C70.6202 918.957 57.2159 928.836 56.2083 944.537C55.2006 960.23 53.9051 973.02 64.9977 981.737C76.0903 990.454 75.523 980.286 74.3629 977.665C73.2029 975.043 71.4839 968.076 75.2266 967.786C78.9693 967.496 76.3782 970.544 76.3782 970.544C76.3782 970.544 73.6432 974.617 79.9855 974.036C86.3277 973.455 83.0084 975.923 83.0084 975.923C83.0084 975.923 82.0008 977.665 86.0314 976.503C88.5209 975.786 89.2575 977.058 89.4523 978.134C89.6216 979.056 90.2229 979.833 91.0866 980.183C94.0502 981.379 100.088 982.54 99.8675 971.995C99.5796 958.044 104.051 935.957 105.778 943.513C107.505 951.069 98.572 953.681 102.315 969.673C106.066 985.656 113.56 980.576 113.56 980.576C113.56 980.576 118.75 978.834 113.704 976.649C108.657 974.471 110.24 968.657 110.24 968.657C110.24 968.657 111.248 963.568 112.256 968.367C113.263 973.165 114.703 968.076 114.703 968.076C114.703 968.076 118.454 957.754 119.03 963.568C119.47 968.017 120.757 964.542 121.333 962.672C121.579 961.861 122.07 961.144 122.764 960.665C124.102 959.743 126.134 959.223 126.236 964.584C126.38 972.576 117.844 973.669 114.127 973.447C110.41 973.225 104.33 971.415 108.073 958.044C111.824 944.674 118.158 932.174 105.338 925.634C92.5091 919.094 82.5681 916.481 82.5681 916.481C82.5681 916.481 71.3231 920.409 85.5911 933.924C99.859 947.44 95.9724 958.924 95.9724 958.924C95.9724 958.924 89.8418 989.78 103.898 994.963C114.915 999.027 116.811 1014.29 117.108 1020.72C117.192 1022.49 116.879 1024.25 116.193 1025.87L97.5474 1070.1C97.5474 1070.1 90.6293 1087.68 101.155 1084.34C109.046 1081.83 113.771 1081.94 115.643 1082.15C116.388 1082.24 117.133 1082.23 117.87 1082.09C122.07 1081.33 134.754 1078.46 129.547 1071.98C127.531 1068.65 118.877 1070.82 118.877 1070.82C118.877 1070.82 105.761 1074.16 106.337 1056.29C106.896 1039.08 112.264 1014.58 124.119 1007.09C124.957 1006.56 125.931 1006.3 126.922 1006.3H148.861H158.675C159.166 1006.3 159.598 1005.98 159.725 1005.5C160.386 1003.04 162.858 995.646 169.04 993.656C173.621 992.179 175.594 990.916 176.432 990.156C177.152 989.498 178.058 989.063 179.023 989.02C179.988 988.977 180.31 989.43 177.033 991.581C171.089 995.509 159.632 1000.73 162.545 1014.69C165.466 1028.64 171.732 1058.83 180.598 1052.94C189.464 1047.06 186.221 1051.09 186.221 1051.09C186.221 1051.09 183.088 1054.04 185.789 1059.59C188.49 1065.15 183.731 1060.47 183.731 1060.47C183.731 1060.47 180.92 1057.08 179.734 1064.06C178.964 1068.59 176.957 1068.76 175.645 1068.31C174.95 1068.07 174.247 1068.64 174.239 1069.38C174.214 1071.1 174.713 1073.48 177.677 1073.55C182.326 1073.66 186.813 1075.18 186.111 1068.53C185.408 1061.88 192.377 1058.18 192.377 1058.18C192.377 1058.18 195.298 1058.18 192.377 1060.69C189.455 1063.2 188.592 1067.44 189.244 1070.93C189.675 1073.26 188.719 1074.61 188.024 1075.26C187.482 1075.77 187 1076.36 186.678 1077.03C185.857 1078.79 185.188 1081.61 189.887 1080.85C196.585 1079.76 198.321 1070.28 198.321 1070.28C198.321 1070.28 199.439 1062.01 201.505 1059.96C201.954 1059.52 202.36 1059.02 202.58 1058.43C203.275 1056.56 203.639 1052.9 197.237 1050.78C190.836 1048.65 189.413 1045.52 189.167 1044.02C189.066 1043.38 188.829 1042.77 188.439 1042.25C184.459 1037.02 166.203 1011.69 181.242 1001.08C196.458 990.343 196.052 991.052 196.052 991.052C196.052 991.052 202.131 988.841 193.35 988.764C186.822 988.704 176.271 985.494 182.215 981.353C188.16 977.212 196.094 972.414 196.001 955.013C196.001 954.766 195.645 954.732 195.603 954.971C194.51 961.468 190.548 979.176 180.59 972.089C173.892 967.624 165.026 967.402 163.189 968.93C161.351 970.459 153.781 967.299 151.842 964.132C149.903 960.964 151.3 957.481 154.221 959.334C157.143 961.186 162.325 965.003 161.36 958.676C160.589 953.647 164.933 957.438 166.754 959.205C167.329 959.76 167.981 960.221 168.701 960.572C172.689 962.501 185.323 968.102 183.409 960.751C182.055 955.56 183.926 954.697 185.662 954.843C186.669 954.928 186.991 956.277 186.136 956.823C183.384 958.599 176.83 959.846 181.14 952.025C190.031 935.897 190.116 928.375 190.116 928.375C190.116 928.375 190.116 925.216 193.579 930.45C197.042 935.683 201.581 932.849 201.581 932.849C201.581 932.849 203.96 929.801 198.99 929.357C194.019 928.913 193.799 923.909 193.799 923.909C193.799 923.909 194.553 921.075 191.64 921.075C188.727 921.075 187.423 919.333 189.371 916.823C191.318 914.313 189.049 914.099 187.533 914.099C186.017 914.099 175.856 912.682 183.748 909.523C191.64 906.364 192.072 899.602 192.072 899.602C192.072 899.602 192.605 887.171 206.56 892.737C220.515 898.304 220.616 902.436 220.616 902.436C220.616 902.436 224.08 914.757 206.67 909.19C189.261 903.623 188.727 910.385 194.561 911.7C200.396 913.015 210.04 916.823 220.896 908.977C228.059 903.794 227.619 908.447 226.501 912.204C225.849 914.39 224.198 916.114 222.064 916.874C217.415 918.522 209.507 921.783 212.945 923.909C216.611 926.181 211.861 928.315 209.498 929.177C208.448 929.562 207.474 930.134 206.67 930.919C205.688 931.884 205.4 932.721 210.133 930.885C216.027 928.605 218.237 925.233 218.982 923.67C219.532 922.518 220.489 921.57 221.683 921.126C223.893 920.306 227.28 920.989 230.236 929.792C235.096 944.29 243.53 960.307 235.426 958.898C231.624 958.232 229.135 959.197 227.56 960.409C225.375 962.091 222.2 961.041 221.539 958.352C221.522 958.283 221.505 958.207 221.488 958.138C219.761 950.941 217.382 950.07 218.135 956.507C218.889 962.945 221.7 974.164 225.917 969.041C230.134 963.918 229.914 953.451 238.136 961.306C246.358 969.161 249.051 991.821 249.051 991.821C249.051 991.821 248.831 997.413 254.995 996.474C259.483 995.782 264.555 997.456 266.968 998.403C268.137 998.864 269.144 999.684 269.746 1000.79C270.347 1001.9 270.288 1002.89 267.315 1002.18C261.913 1000.87 256.612 998.907 259.855 1000.65C263.098 1002.39 263.962 1004.03 258.67 1002.83C253.378 1001.62 249.161 1002.71 249.161 1002.71C249.161 1002.71 245.266 1003.37 245.486 997.481C245.706 991.59 237.704 983.744 237.704 983.744C237.704 983.744 225.053 966.744 229.922 969.135C234.791 971.526 236.62 991.701 230.896 998.019C226.391 1002.99 223.165 999.18 221.98 997.328C221.582 996.696 221.099 996.132 220.532 995.663C217.458 993.127 208.228 985.673 211.759 990.608C215.976 996.491 227.755 999.658 206.789 1006.52C188.651 1012.46 196.551 1026.95 199.015 1030.77C199.481 1031.49 199.811 1032.27 200.006 1033.11C200.726 1036.22 202.03 1043.44 198.897 1044.12C194.9 1045 183.113 1005.87 211.759 1006.09C240.405 1006.31 291.563 1005.5 291.563 1005.5" stroke="#A90017" stroke-opacity="0.2" stroke-width="3" stroke-miterlimit="10"/>
</g>
<path d="M291.31 1005.08C335.723 1008.02 391.946 966.835 261.534 778.62C192.383 696.71 127.676 548.221 422.053 609.541C716.43 670.862 733.362 552.917 705.031 486.28C691.599 454.687 658.273 441.74 660.034 516.318C661.795 590.897 728.866 641.081 790.024 554.125C841.02 481.618 857.019 331.425 825.522 181.75C819.309 152.229 779.525 135.992 779.525 225.254C779.525 305.53 898.516 420.505 1102 1" stroke="#A90017" stroke-opacity="0.2" stroke-width="3"/>
<defs>
<clipPath id="clip0_178_12">
<rect width="311" height="202" fill="white" transform="translate(0 883.183)"/>
</clipPath>
</defs>
</svg>
