<svg width="148" height="179" viewBox="0 0 148 179" fill="none" xmlns="http://www.w3.org/2000/svg">
<g clip-path="url(#clip0_117_213)">
<path d="M181 178.67H121.612C120.167 178.67 118.834 177.937 118.049 176.721C115.852 173.294 112.355 165.976 117.653 160.006C123.493 153.428 124.885 146.856 125.202 144.617C125.295 143.957 125.44 143.303 125.618 142.662C127.921 134.301 141.144 83.2158 122.596 74.3461C118.056 72.761 115.205 69.1616 113.628 66.4604C112.579 64.6573 112.13 62.577 112.348 60.5032C113.542 49.1699 116.591 4.55698 90.9223 0.832083C65.2867 -2.88621 63.3467 15.4015 63.2741 20.1765C63.2609 21.1341 63.5117 22.0984 64.099 22.8579C64.97 23.9938 66.4943 24.5552 68.4607 19.4962C71.2915 12.2115 76.4846 20.7709 77.5008 22.5541C77.6393 22.7918 77.7845 23.023 77.9561 23.2409C79.322 24.9779 85.5181 32.1767 93.6212 31.1861C102.833 30.0633 102.833 32.7579 102.608 34.3364C102.384 35.9148 104.641 50.471 99.164 45.1148C98.8209 44.778 98.2402 44.9563 98.1544 45.4252C97.4946 49.0048 94.8023 59.6776 85.5379 64.6838C75.7125 69.9937 71.727 62.0552 70.8889 59.9814C70.7636 59.6776 70.6118 59.387 70.427 59.1228C69.0347 57.1151 63.1092 47.2282 65.0954 27.1375C65.0954 27.1375 65.0558 69.6437 55.1644 84.398C54.5904 85.25 54.1483 86.1746 53.8843 87.1653C51.9839 94.265 43.6367 122.671 33.1977 116.165C28.4796 112.341 30.7298 107.619 30.7298 107.619L30.8156 107.474C31.0729 107.051 31.3764 106.648 31.7856 106.371C32.2936 106.014 33.0327 104.687 32.0759 99.7533C30.7298 92.7856 35.4478 68.052 50.2683 68.052C57.6785 68.052 60.7139 70.0201 61.895 71.9883C62.7924 73.4809 62.7067 75.3697 61.8422 76.8822C58.9784 81.9213 46.5005 105.215 57.9095 109.422C67.7414 113.048 69.6286 116.806 69.9717 118.351C70.1697 119.236 70.592 120.062 71.2519 120.689C72.6046 121.971 74.6963 122.321 75.4288 113.464C76.5506 99.9713 77.448 64.6772 73.8583 79.9664C70.2687 95.2557 77.2302 121.337 85.5379 101.101C92.1365 85.032 96.3332 66.9755 97.7783 60.2258C97.9169 59.5653 98.8539 59.5587 99.0122 60.2126C101.177 69.472 107.557 100.117 102.048 118.569C101.869 119.17 102.602 119.619 103.057 119.19L108.613 113.926C109.22 113.352 109.55 112.553 109.511 111.721C109.293 106.378 108.871 86.168 114.512 82.6676C121.025 78.6191 121.25 72.1005 113.166 71.876C105.083 71.6514 109.346 86.9407 109.346 86.9407C109.346 86.9407 114.064 112.797 108 124.711C101.935 136.626 104.628 140.225 104.628 140.225C104.628 140.225 112.487 143.825 108.224 154.392C103.961 164.959 97.6661 163.162 92.4994 154.616C87.3327 146.07 83.2877 150.343 83.2877 150.343C83.2877 150.343 79.9158 152.589 76.5506 148.996C73.1853 145.403 70.9351 145.172 70.9351 145.172C70.9351 145.172 63.9142 140.172 73.6868 142.814C83.4593 145.456 75.2242 145.667 72.1163 143.884C69.0083 142.101 66.7252 139.611 66.7252 139.611C66.7252 139.611 63.0168 136.348 70.0377 138.151C77.0586 139.955 77.1708 142.312 70.9351 140.06C64.6994 137.808 59.5327 133.093 59.5327 133.093C59.5327 133.093 55.8903 129.328 66.0258 132.98C76.1612 136.632 72.9543 137.141 68.52 135.563C64.0858 133.984 57.8501 131.963 57.9623 129.546C58.0744 127.129 60.9976 126.792 64.9238 127.578C68.85 128.364 80.4767 127.182 80.4767 127.182C80.4767 127.182 97.2108 132.293 99.7381 136.514C102.265 140.734 83.3405 127.353 83.3405 127.353C83.3405 127.353 81.0376 125.557 76.0425 125.497C71.0473 125.438 68.6322 123.701 68.6322 123.701C68.6322 123.701 65.3989 121.396 66.3887 125.484C66.5075 125.98 66.1379 126.455 65.6298 126.455C65.5177 126.455 65.4319 126.369 65.4253 126.257L65.2735 119.672C65.2669 119.382 65.036 119.144 64.739 119.137C59.3216 119.018 13.5272 117.79 19.6573 111.337C26.1701 104.482 25.893 107.626 25.893 107.626C25.893 107.626 25.4641 117.916 4.00538 109.052C3.77443 108.96 3.59627 109.264 3.79423 109.409C7.66102 112.282 17.0376 119.95 11.0659 122.803C7.21891 124.639 4.67184 124.936 3.10797 124.791C1.5441 124.645 0.171587 123.219 0.343151 121.594C0.488321 120.201 1.65628 118.589 5.72762 117.691C11.7588 116.357 13.5998 119.837 14.1475 121.733C14.319 122.321 13.9495 122.922 13.349 123.027C10.5842 123.509 3.27294 125.055 4.59926 127.756C6.22912 131.072 12.1217 130.457 12.1217 130.457C12.1217 130.457 23.1876 129.11 15.7179 128.885C10.9075 128.74 8.6838 130.206 7.70721 131.263C6.79 132.26 7.16612 133.892 8.43305 134.347C9.69999 134.803 12.1481 134.876 16.6681 133.66C27.3381 130.794 20.4161 131.091 16.7803 132.762C13.1445 134.433 7.62802 136.362 12.7353 137.484C17.8427 138.607 21.0496 135.913 21.0496 135.913C21.0496 135.913 25.0946 148.672 36.2132 148.785C40.311 148.844 41.6637 148.052 41.6637 148.052C41.6637 148.052 41.822 148.012 42.0134 147.86C42.5941 147.418 42.4291 146.493 41.7429 146.242L34.9265 143.693C34.26 143.442 33.7849 142.841 33.7123 142.127C33.3362 138.475 31.3302 127.802 21.0496 135.906C21.0496 135.906 25.2067 132.729 22.9038 132.307C22.9038 132.307 27.7406 131.085 25.2067 129.156C21.6897 126.481 18.9183 128.819 18.9183 128.819C18.9183 128.819 27.0609 129.83 27.1203 127.188C27.1797 124.546 24.085 124.21 24.085 124.21C24.085 124.21 18.6939 123.358 16.0677 123.417C15.6717 123.424 15.4276 123.84 15.6057 124.19C17.4006 127.796 26.3813 143.957 44.4747 147.021C44.732 147.067 44.9762 147.147 45.2071 147.266C48.2887 148.917 71.1727 161.234 77.283 166.392C77.6327 166.689 78.1606 166.445 78.1606 165.983V152.589" stroke="#3EAD52" stroke-opacity="0.2" stroke-width="3" stroke-miterlimit="10"/>
</g>
<defs>
<clipPath id="clip0_117_213">
<rect width="181" height="179" fill="white"/>
</clipPath>
</defs>
</svg>
