<svg width="658" height="561" viewBox="0 0 658 561" fill="none" xmlns="http://www.w3.org/2000/svg">
<g clip-path="url(#clip0_78_26)">
<path d="M0 560.14H171.028C173.515 560.14 175.351 557.802 174.734 555.379C172.16 545.219 167.082 521.256 172.52 508.346C177.616 496.227 172.074 477.61 168.66 468.345C167.03 463.927 165.898 459.355 165.281 454.679C163.17 438.554 160.631 404.535 164.646 398.605C171.354 388.651 163.376 355.44 155.879 340.674C149.326 327.73 144.728 254.998 215.839 245.595C219.013 245.183 222.221 245.956 224.983 247.589C230.525 250.838 243.958 255.858 273.277 254.654C315.91 252.901 331.093 266.361 299.56 265.776C268.028 265.192 169.913 275.145 234.728 240.026C256.928 225.981 261.594 205.491 261.594 205.491C261.594 205.491 266.844 170.371 288.46 176.233C303.455 180.29 311.072 176.749 314.332 174.187C317.591 171.626 321.554 169.684 325.689 168.738C329.566 167.861 334.438 167.329 339.86 168.033C353.293 169.787 353.293 170.956 363.226 160.418C373.159 149.881 376.076 156.911 371.993 165.678C367.91 174.445 362.06 186.753 365.576 196.105C367.601 201.503 361.459 207.089 355.901 210.871C350.942 214.223 345.23 216.372 339.259 216.613C332.397 216.888 330.441 214.086 375.407 195.813C378.615 194.506 381.617 192.736 384.225 190.449C393.455 182.421 410.868 161.432 401.638 122.514C389.372 70.72 333.306 62.8297 333.306 62.8297C333.306 62.8297 321.52 68.0899 335.502 67.6601C340.923 67.4882 344.646 65.9411 347.168 64.0846C350.411 61.7123 352.281 57.9305 352.401 53.908C352.727 43.2158 350.737 12.0844 317.557 2.69862C277.258 -8.71563 293.899 35.1708 303.094 43.508C312.29 51.8452 335.502 69.3963 331.573 48.7682C327.645 28.14 335.519 34.2769 335.519 34.2769C335.519 34.2769 366.177 66.7491 320.628 61.9358C275.079 57.1226 261.937 100.562 261.937 100.562C261.937 100.562 244.352 172.657 262.383 174.291C275.147 175.442 272.248 164.63 269.469 158.218C267.324 153.267 266.141 147.955 265.866 142.575C264.922 123.734 269.194 86.5693 315.378 76.874C361.768 67.1272 385.1 102.144 394.073 120.984C397.161 127.482 398.362 134.684 397.521 141.836C395.376 160.074 390.333 197.703 385.46 196.26C380.588 194.816 380.331 204.958 380.519 209.496C380.605 211.559 380.262 213.587 379.524 215.512C377.877 219.827 373.931 226.858 364.873 232.238C358.302 236.192 351.303 246.283 351.303 246.283C351.303 246.283 336.411 273.495 321.074 258.574C305.736 243.653 329.395 234.869 324.574 248.483C319.753 262.098 315.378 271.741 327.645 276.142C339.911 280.543 353.053 280.474 353.053 280.474C353.053 280.474 378.89 283.173 385.46 293.263C390.075 300.346 391.877 294.243 392.546 289.98C392.872 287.866 394.004 285.975 395.754 284.737C401.141 280.938 411.623 272.859 404.28 272.188C396.938 271.518 387.896 277.638 384.379 280.354C383.299 281.179 382.544 282.331 382.183 283.637C380.828 288.691 379.027 301.343 395.531 300.277C400.781 299.83 402.325 288.639 402.325 288.639L412.55 228.766C412.944 226.411 415.14 224.812 417.49 225.139L436.722 227.769C439.742 228.182 441.886 230.949 441.509 233.975L433.789 298.678C433.703 299.435 433.017 299.985 432.262 299.933L425.965 299.4L425.519 301.601L433.36 302.34C433.977 302.391 434.252 303.182 433.771 303.595C430.889 306.087 423.547 310.952 421.797 297.441C420.39 286.525 417.044 286.594 414.866 288.02C413.613 288.828 412.876 290.272 412.876 291.768C412.876 294.501 412.944 298.111 409.084 298.541L403.217 298.953C398.739 299.263 395.565 303.663 396.903 307.961C397.538 309.972 398.962 312.327 401.621 315.009C411.915 325.323 412.567 356.712 412.567 356.712C412.567 356.712 420.887 430.234 428.985 438.572C437.083 446.909 455.697 493.425 432.262 511.87C408.827 530.315 388.891 518.231 385.615 515.601C382.338 512.971 337.647 472.814 345.967 413.99C354.288 355.165 361.082 392.485 355.815 402.902C350.548 413.319 342.673 444.485 342.776 451.946C342.879 459.406 342.124 499.889 373.554 509C404.984 518.11 407.832 526.448 407.832 526.448C407.832 526.448 427.441 551.906 441.337 524.144C455.234 496.382 452.609 457.429 452.609 457.429C452.609 457.429 450.636 420.35 448.114 412.769C445.592 405.188 443.739 358.242 446.587 346.604C449.435 334.967 446.21 328.383 452.815 319.943C456.949 314.648 455.903 309.216 454.547 305.915C453.381 303.079 452.763 300.071 452.694 296.994L451.922 260.362C451.854 257.181 451.408 254.001 450.447 250.976C449.383 247.624 447.839 244.839 446.158 249.068C443.087 256.752 443.756 263.662 443.756 263.662C443.756 263.662 445.146 288.055 441.234 296.255C440.445 297.905 437.958 297.183 438.198 295.378L447.496 223.42C447.822 220.841 446.312 218.4 443.859 217.558C441.406 216.716 437.529 216.269 431.387 215.478C416.204 213.536 411.898 215.581 410.577 218.108C409.256 220.635 396.663 297.664 396.663 297.664C396.663 297.664 389.646 315.765 413.081 309.955C413.081 309.955 417.936 309.078 414.282 300.518C410.628 291.957 412.893 325.031 412.893 325.031C412.893 325.031 412.532 335.637 416.547 339.299C420.561 342.96 421.797 370.602 422.243 376.601C422.689 382.601 412.687 438.778 428.367 471.474C444.048 504.169 431.061 504.977 431.061 504.977C431.061 504.977 417.628 510.237 427.115 525.158C433.634 535.421 434.097 548.107 433.737 555.018C433.6 557.802 435.796 560.123 438.558 560.123H657.948" stroke="#A90017" stroke-opacity="0.3" stroke-width="3" stroke-miterlimit="10"/>
</g>
<defs>
<clipPath id="clip0_78_26">
<rect width="658" height="561" fill="white"/>
</clipPath>
</defs>
</svg>
