<svg width="690" height="872" viewBox="0 0 690 872" fill="none" xmlns="http://www.w3.org/2000/svg">
<path d="M38.3574 682.349C38.3574 682.349 124.147 756.536 217.737 712.473" stroke="#31A847" stroke-opacity="0.4" stroke-width="3" stroke-miterlimit="10"/>
<path d="M301.938 726.432C301.938 726.432 256.182 813.748 276.667 865.58C277.482 867.644 275.975 869.849 273.756 869.849H243.394C241.215 869.849 239.342 868.352 238.894 866.248C235.758 851.641 219.63 797.786 152.208 798.15C88.7969 798.494 67.6599 845.673 61.9786 863.314C60.7161 867.198 57.1118 869.869 53.0188 869.869H28.2775C25.0398 869.869 22.3111 867.441 21.965 864.245C19.6232 843.124 17.0371 767.056 90.7721 713.079" stroke="#31A847" stroke-opacity="0.4" stroke-width="3" stroke-miterlimit="10"/>
<path d="M273.878 674.6C273.878 674.6 278.235 727.949 230.952 735.9C227.796 736.426 224.782 734.403 223.988 731.328C218.612 710.632 205.967 635.939 303.873 637.011C310.694 637.092 316.925 641.017 319.919 647.107C323.869 655.118 328.064 666.447 325.335 674.6C321.69 685.464 350.178 686.8 362.987 686.86C366.286 686.86 368.79 689.774 368.322 693.011C365.553 712.169 352.418 765.882 294.669 713.059" stroke="#31A847" stroke-opacity="0.4" stroke-width="3" stroke-miterlimit="10"/>
<path d="M39.744 683C11.3932 658.667 -28.2979 582.2 39.744 471C124.796 332 6.52826 273.5 23.1361 337C36.4225 387.8 183.343 358.167 255.143 337C386.832 290.667 659.167 158.5 695 0.5" stroke="#30A847" stroke-opacity="0.4" stroke-width="3"/>
<path d="M631.968 403.349C631.968 403.349 546.178 477.536 452.589 433.473" stroke="#31A847" stroke-opacity="0.4" stroke-width="3" stroke-miterlimit="10"/>
<path d="M368.387 447.432C368.387 447.432 414.143 534.748 393.658 586.58C392.844 588.644 394.35 590.849 396.57 590.849H426.932C429.11 590.849 430.984 589.352 431.432 587.248C434.568 572.641 450.695 518.786 518.118 519.15C581.529 519.494 602.666 566.673 608.347 584.314C609.609 588.198 613.214 590.869 617.307 590.869H642.048C645.286 590.869 648.014 588.441 648.361 585.245C650.702 564.124 653.288 488.056 579.553 434.079" stroke="#31A847" stroke-opacity="0.4" stroke-width="3" stroke-miterlimit="10"/>
<path d="M396.448 395.6C396.448 395.6 392.09 448.949 439.373 456.9C442.53 457.426 445.543 455.403 446.338 452.328C451.713 431.632 464.359 356.939 366.453 358.011C359.631 358.092 353.4 362.017 350.407 368.107C346.456 376.118 342.261 387.447 344.99 395.6C348.635 406.464 320.147 407.8 307.339 407.86C304.04 407.86 301.535 410.774 302.003 414.011C304.773 433.169 317.907 486.882 375.657 434.059" stroke="#31A847" stroke-opacity="0.4" stroke-width="3" stroke-miterlimit="10"/>
<path d="M628.083 406.444C643.764 394.762 678.884 363.33 693.917 331.057" stroke="#30A847" stroke-opacity="0.4" stroke-width="3"/>
</svg>
