<?xml version="1.0" encoding="UTF-8"?><svg id="Calque_2" xmlns="http://www.w3.org/2000/svg" viewBox="0 0 222.5 229.44"><defs><style>.cls-1{fill:none;opacity:.2;stroke:#ef788c;stroke-miterlimit:10;}</style></defs><path class="cls-1" d="M90.37,54.49s10.55-6.47,7.15-14.3c-1.34-3.57,2.3-8.55,2.3-8.55,0,0,7.6-9.57,0-19.02S90.37-1.42,73.71,1.26s-17.3,28.34-17.3,28.34c0,0,4.15,33.06-10.34,42.51s-16.09,19.6-14.62,29.74,7.85,34.84,7.02,40.39,2.55,21.14-7.22,16.61c-7.21-3.34,10.28-8.62,10.28-8.62,0,0,7.53-3.38-20.23-3.26C1.49,147.07-.09,166.12,.63,177.02c.31,4.74,1.59,9.36,3.69,13.62,4.15,8.42,12.82,22.6,24.64,23.93,8.36,.83,5.04-26.17,1.98-16.21s-3.77,18.83,12.45,25.47,60.13,6.96,76.28-7.66"/><path class="cls-1" d="M188.79,201.94s7.79,4.72,12.51,0,1.4-11.11-9.57,4.09-31.4,12.64-34.98,10.98-34.09-11.36-43.28-7.91-4.21,4.21-4.21,4.21c0,0,8.68-.26,18,4.97s34.72,22.22,72.38-2.04c26.46-17.04,23.8-37.68,19.88-48.45-2.15-5.89-6.16-10.99-11.62-14.07-1.24-.7-2.6-1.34-4.06-1.82-7.28-2.43-24.89-9.06-25.4-26.94s.38-48.77-14.17-33.19-1.91,22.59-1.91,22.59c0,0,13.88,9.13,15.65-27.06,.04-.87,.05-1.75-.01-2.62-.14-2.1-.62-2.63-4.02-5.29-4.09-3.19-18.13-16.21-26.43-8.04s-5.36,6.26-11.11,6.77-9.96-2.43-9.96-2.43c0,0-3.45-3.96-5.36,7.4-1.69,10.02,8.73,15.77,11.22,16.99,.44,.22,.86,.47,1.25,.76,3.27,2.42,16.08,13.06,7.57,26.17-.21,.27-.41,.54-.6,.81-2.67,3.74-3.88,8.32-3.73,12.91,.21,6.91-.02,24.6-7.92,25.73-9.83,1.4-13.4,9.06-7.02,13.02,4.48,2.78,.22-4.57-2.72-9.2-1.87-2.94-3.28-6.15-4.17-9.52-2.07-7.84-4.51-22.16-.13-36.43,6.51-21.19-1.53-36-8.94-41.36s-16.72-9.83-16.72-18,11.62,9.06,1.15,10.85-16.09-3.32-16.09-3.32c0,0-2.95-3.29-10.22-2.5-13.48,1.47-22.59,14.51-19.99,27.82,3.42,17.51,6.85,44.33-1.06,56.12-4.43,6.59-6.07,12.26-6.37,16.8-.43,6.62,2.99,12.93,8.64,16.4,9.39,5.78,29.39,14.51,48.16-.52,9.19-7.28,8.04-69.45,8.04-69.45,0,0-1.66-6.51-2.17,3.06s-4.09,37.15,8.43,48.13,10.98,26.3,10.98,26.3c0,0-5.36,9.06-3.32,2.43s7.66,.38,7.66,.38c0,0,1.91,4.09,7.66,.77,4.07-2.35,8.97,.1,11.48,1.73,2.02,1.31,4.46,1.92,6.85,1.59,2.97-.41,5.88-2.28,4.64-8.43-2.3-11.49,1.02-35.23,22.85-34.21s25.02,7.15,25.02,7.15"/></svg>