<svg width="272" height="226" viewBox="0 0 272 226" fill="none" xmlns="http://www.w3.org/2000/svg">
<g clip-path="url(#clip0_184_15)">
<path d="M107 224.799H170.443C171.613 224.799 172.469 223.698 172.18 222.565C170.516 216.075 165.049 197.255 156.166 190.733C145.358 182.8 131.125 158.311 150.418 155.164C169.712 152.018 182.711 148.734 182.027 153.661C181.344 158.588 172.176 159.954 172.176 159.954C172.176 159.954 153.429 163.921 160.68 170.624C167.931 177.327 173.816 182.254 173.269 175.824C172.722 169.394 166.564 163.101 174.089 162.145C181.613 161.188 174.499 184.034 174.499 184.034C174.499 184.034 168.478 192.654 174.909 194.84C181.34 197.026 180.11 204.553 178.193 206.333C176.276 208.114 177.972 217.276 182.051 210.983C186.131 204.69 185.721 198.533 185.721 198.533C185.721 198.533 185.448 192.24 189.142 190.323C191.541 189.082 191.284 185.529 190.814 183.194C190.52 181.735 189.584 180.494 188.262 179.811C186.939 179.127 185.569 178.746 186.268 180.61C187.285 183.319 193.33 188.077 195.412 189.66C195.806 189.962 196.164 190.303 196.489 190.681C197.293 191.609 199.058 192.855 198.306 184.717C197.76 180.478 203.507 181.434 203.781 184.717C204.054 188.001 201.043 201.68 208.295 203.05C213.363 204.007 216.828 207.302 218.456 209.199C218.962 209.794 219.384 210.449 219.754 211.136C220.236 212.028 221.466 213.205 223.621 208.383C225.868 203.352 223.597 199.329 222.499 197.814C221.917 197.01 221.531 196.078 221.45 195.089C221.318 193.373 221.764 190.769 224.577 187.972C229.505 183.074 220.064 174.048 220.064 174.048C220.064 174.048 217.053 171.721 217.873 166.935C218.693 162.149 210.485 156.949 210.485 156.949C210.485 156.949 204.191 151.748 213.769 145.319C221.627 140.046 213.741 137.531 210.65 136.799C209.975 136.638 209.279 136.606 208.592 136.707C205.143 137.209 193.278 138.656 191.875 134.918C190.231 130.542 182.433 132.318 185.854 136.285C189.274 140.251 190.094 154.618 184.21 153.384C178.325 152.15 177.369 154.477 176.276 145.174C175.307 136.936 187.534 137.064 190.348 137.205C190.746 137.225 191.131 137.293 191.509 137.414C193.684 138.113 200.875 141.051 196.662 148.184C191.734 156.531 189.821 140.086 199.4 139.825C208.978 139.564 208.978 139.291 212.398 134.095C215.819 128.898 221.84 126.298 221.84 126.298C221.84 126.298 229.501 122.469 230.872 111.112C232.243 99.7554 246.061 98.2524 250.165 101.536C254.269 104.819 262.208 114.122 249.072 116.722C235.936 119.322 212.402 127.391 231.145 137.378C247.709 146.203 238.312 121.701 235.9 115.878C235.506 114.926 235.285 113.913 235.253 112.884C235.133 108.709 236.097 99.2169 248.521 106.736C264.121 116.175 246.877 132.379 232.922 130.128C218.966 127.878 213.355 124.108 214.722 114.259C216.088 104.409 226.213 105.092 229.638 105.229C233.063 105.365 245.647 106.322 245.101 115.625C244.554 124.928 237.713 127.938 228.408 122.328C219.103 116.718 224.987 103.995 228.681 102.219C232.375 100.443 242.637 87.4423 249.619 96.1989C256.601 104.955 238.537 112.615 238.537 112.615C238.537 112.615 227.592 115.762 220.61 109.058C213.628 102.355 210.759 109.058 210.759 109.058C210.759 109.058 208.568 117.815 221.977 118.225C235.386 118.635 245.684 121.44 246.471 124.382C247.259 127.323 249.345 132.989 236.893 132.178C224.441 131.366 215.272 124.245 212.398 130.397C210.039 135.457 205.276 140.516 203.652 142.156C203.495 142.317 203.64 142.582 203.861 142.538C206.675 141.967 216.249 140.569 215.55 148.043C214.73 156.8 217.463 162.82 213.769 161.449C210.075 160.079 213.906 154.336 217.736 155.02C221.567 155.703 258.514 165.279 249.619 174.856C240.724 184.432 226.905 195.925 221.294 189.359C217.318 184.705 220.904 180.116 223.327 177.841C224.26 176.965 225.385 176.334 226.615 175.985C230.056 175.004 237.492 172.163 226.905 168.016C217.133 164.19 214.111 167.256 213.194 169.141C212.68 170.202 211.948 171.142 211.044 171.898C206.442 175.728 193.889 184.697 185.854 176.222C182.707 172.939 187.221 167.739 187.221 167.739C187.221 167.739 189.138 165.002 186.401 162.402C183.663 159.802 184.347 155.835 189.958 154.606C195.569 153.376 200.493 150.913 205.831 155.152C211.168 159.392 206.514 166.509 206.514 166.509C206.514 166.509 201.289 175.812 213.765 175.949C223.444 176.053 226.012 186.944 226.676 191.822C226.865 193.193 226.426 194.571 225.494 195.596C222.921 198.413 217.977 204.674 220.88 208.508C223.93 212.538 223.078 220.471 222.604 223.537C222.503 224.196 223.01 224.787 223.677 224.787H329.996" stroke="#A90017" stroke-opacity="0.2" stroke-width="3" stroke-miterlimit="10"/>
</g>
<path d="M107 224.2C33.5004 226.866 -74.3996 208.4 82.0004 113.2C277.5 -5.80019 116 10.6998 156.5 40.6998C188.9 64.6998 246.667 24.6999 271.5 1.69995" stroke="#A90017" stroke-opacity="0.2" stroke-width="2"/>
<defs>
<clipPath id="clip0_184_15">
<rect width="223" height="132" fill="white" transform="translate(107 93)"/>
</clipPath>
</defs>
</svg>
