<svg width="1440" height="1134" viewBox="0 0 1440 1134" fill="none" xmlns="http://www.w3.org/2000/svg">
<g clip-path="url(#clip0_206_25)">
<path d="M31 972.703H120.514C122.205 972.703 123.285 974.501 122.501 976.003C118.615 983.474 112.324 1002.29 135.465 1018.75C165.123 1039.86 166.901 1052.92 166.901 1052.92C166.901 1052.92 172.529 1072.82 195.966 1058.26C214.908 1046.49 202.065 1049.09 196.454 1050.51C194.084 1051.1 191.941 1052.5 190.652 1054.57C188.717 1057.68 188.299 1062.71 197.465 1068.94C209.663 1077.23 205.428 1096.8 202.919 1105.16C202.205 1107.52 200.898 1109.63 199.138 1111.34C192.952 1117.36 179.151 1132.83 205.934 1127.77C238.972 1121.54 231.253 1072.5 231.253 1072.5C231.253 1072.5 227.402 1054.98 224.126 1071.91C220.867 1088.84 213.444 1086.47 213.148 1082.02C212.851 1077.56 217.887 1070.42 217.887 1070.42C217.887 1070.42 221.442 1063.6 211.963 1054.38C202.466 1045.16 169.253 1016.34 168.364 1005.96C167.476 995.554 145.816 977.137 149.684 991.399C153.535 1005.66 189.728 966.733 189.728 966.733C189.728 966.733 210.482 945.035 235.992 982.479C248.748 1000.9 242.213 1006.25 242.213 1006.25C242.213 1006.25 234.79 1009.82 247.545 988.432C250.368 984.277 252.372 985.691 253.662 988.135C255.3 991.225 255.509 994.873 254.69 998.277C253.244 1004.33 249.793 1015.37 243.102 1020.81C235.139 1027.29 234.476 1072.4 234.476 1086.82C234.476 1088.82 236.48 1090.18 238.362 1089.47C243.363 1087.57 252.599 1085.24 262.374 1088.84C274.137 1093.17 269.571 1070.63 267.41 1061.89C266.8 1059.43 266.609 1056.88 266.835 1054.35C267.759 1044.26 271.122 1018.42 281.943 1004.75C286.683 997.928 294.995 974.746 263.263 950.673C231.531 926.601 237.752 919.479 187.341 922.743C162.719 921.993 173.993 886.19 173.993 886.19C173.993 886.19 184.378 854.402 174.585 841.624C164.792 828.845 171.327 846.668 171.327 846.668C171.327 846.668 182.009 870.444 163.311 857.072C148.97 846.808 165.907 823.417 174.55 813.1C176.868 810.342 179.656 807.985 182.845 806.309C189.014 803.062 200.445 795.067 199.521 780.84C199.382 778.763 198.354 776.808 196.681 775.569C191.662 771.85 182.27 758.392 187.027 745.369C192.655 729.92 210.464 719.813 225.886 722.187C241.307 724.561 248.73 730.217 243.677 732.591C238.641 734.965 246.047 745.369 246.047 745.369C246.047 745.369 252.564 751.304 249.602 754.289C247.354 756.541 251.588 760.836 253.766 762.791C254.794 763.716 255.561 764.903 255.91 766.247C256.467 768.377 256.345 771.1 251.971 770.925C246.012 770.681 248.574 780.84 249.567 784.157C249.968 785.501 250.142 786.898 249.933 788.277C249.567 790.756 247.998 793.758 242.475 793.217C233.274 792.327 231.2 800.95 231.2 800.95C231.2 800.95 230.015 824.132 208.356 811.057C186.696 797.983 202.727 779.863 209.244 781.347C214.367 782.516 210.708 773.038 208.896 768.935C208.199 767.364 207.885 765.636 208.129 763.943C208.565 761.01 210.29 758.06 216.65 765.008C222.122 770.995 225.084 768.045 226.652 764.309C227.977 761.115 227.524 757.501 225.799 754.516C223.446 750.466 221.407 743.641 230.294 739.242C243.642 732.626 228.221 729.065 228.221 729.065C228.221 729.065 194.415 721.244 193.823 782.778C193.823 783.86 193.823 784.96 193.962 786.042C194.189 788.033 193.945 793.077 186.121 793.549C176.328 794.142 148.743 814.339 146.67 846.441C144.596 878.526 141.93 904.676 164.757 922.499C187.585 940.322 186.417 919.531 184.03 914.172C181.643 908.813 178.105 894.569 185.807 893.975C193.509 893.382 188.177 899.614 188.177 899.614C188.177 899.614 182.549 907.94 195.6 906.753C208.652 905.566 201.821 910.611 201.821 910.611C201.821 910.611 199.748 914.172 208.042 911.798C213.165 910.332 214.681 912.933 215.082 915.132C215.43 917.018 216.668 918.606 218.445 919.322C224.544 921.766 236.968 924.14 236.515 902.581C235.923 874.057 245.123 828.898 248.678 844.347C252.233 859.796 233.849 865.137 241.551 897.833C249.271 930.511 264.692 920.125 264.692 920.125C264.692 920.125 275.374 916.564 264.988 912.095C254.603 907.643 257.861 895.756 257.861 895.756C257.861 895.756 259.935 885.352 262.009 895.162C264.082 904.973 267.044 894.569 267.044 894.569C267.044 894.569 274.764 873.464 275.949 885.352C276.855 894.446 279.504 887.342 280.689 883.519C281.194 881.86 282.205 880.394 283.633 879.417C286.387 877.531 290.569 876.466 290.778 887.429C291.074 903.768 273.509 906.003 265.86 905.549C258.21 905.095 245.698 901.394 253.4 874.057C261.12 846.721 274.154 821.165 247.772 807.793C221.372 794.422 200.915 789.08 200.915 789.08C200.915 789.08 177.774 797.11 207.136 824.743C236.498 852.377 228.499 875.855 228.499 875.855C228.499 875.855 215.883 938.943 244.81 949.539C267.48 957.848 271.383 989.06 271.993 1002.2C272.168 1005.82 271.523 1009.41 270.111 1012.73L231.741 1103.15C231.741 1103.15 217.504 1139.11 239.164 1132.27C255.404 1127.14 265.128 1127.37 268.979 1127.8C270.512 1127.98 272.046 1127.96 273.562 1127.68C282.205 1126.13 308.308 1120.24 297.591 1107.01C293.444 1100.19 275.635 1104.64 275.635 1104.64C275.635 1104.64 248.643 1111.46 249.828 1074.93C250.978 1039.74 262.026 989.653 286.421 974.327C288.147 973.244 290.15 972.721 292.189 972.721H337.339H357.535C358.545 972.721 359.434 972.057 359.695 971.08C361.054 966.052 366.143 950.935 378.863 946.868C388.29 943.848 392.35 941.264 394.076 939.711C395.557 938.367 397.421 937.476 399.408 937.389C401.394 937.302 402.056 938.227 395.313 942.626C383.08 950.656 359.504 961.339 365.498 989.863C371.51 1018.39 384.404 1080.11 402.649 1068.08C420.893 1056.06 414.219 1064.3 414.219 1064.3C414.219 1064.3 407.772 1070.32 413.331 1081.68C418.889 1093.05 409.096 1083.46 409.096 1083.46C409.096 1083.46 403.311 1076.55 400.871 1090.81C399.286 1100.08 395.156 1100.41 392.455 1099.51C391.026 1099.02 389.58 1100.17 389.562 1101.69C389.51 1105.2 390.538 1110.07 396.637 1110.21C406.204 1110.43 415.439 1113.54 413.993 1099.96C412.546 1086.36 426.888 1078.79 426.888 1078.79C426.888 1078.79 432.899 1078.79 426.888 1083.92C420.876 1089.05 419.098 1097.73 420.44 1104.87C421.329 1109.61 419.36 1112.39 417.931 1113.72C416.816 1114.76 415.823 1115.95 415.16 1117.33C413.47 1120.93 412.093 1126.7 421.765 1125.15C435.548 1122.92 439.12 1103.54 439.12 1103.54C439.12 1103.54 441.42 1086.62 445.672 1082.43C446.596 1081.53 447.432 1080.51 447.885 1079.31C449.314 1075.49 450.063 1068 436.89 1063.65C423.716 1059.3 420.789 1052.9 420.283 1049.84C420.074 1048.53 419.586 1047.28 418.785 1046.23C410.595 1035.53 373.026 983.736 403.973 962.038C435.287 940.095 434.45 941.544 434.45 941.544C434.45 941.544 446.962 937.023 428.892 936.865C415.457 936.743 393.745 930.18 405.977 921.713C418.21 913.247 434.537 903.437 434.346 867.86C434.346 867.354 433.614 867.284 433.527 867.773C431.279 881.057 423.124 917.262 402.631 902.773C388.848 893.643 370.604 893.19 366.822 896.314C363.041 899.439 347.463 892.98 343.472 886.504C339.482 880.028 342.357 872.905 348.369 876.693C354.381 880.481 365.045 888.284 363.058 875.349C361.473 865.067 370.412 872.818 374.158 876.432C375.343 877.566 376.685 878.509 378.166 879.225C386.374 883.17 412.372 894.621 408.434 879.591C405.646 868.978 409.497 867.215 413.069 867.511C415.143 867.686 415.805 870.444 414.045 871.561C408.382 875.192 394.895 877.741 403.764 861.751C422.061 828.776 422.235 813.397 422.235 813.397C422.235 813.397 422.235 806.938 429.362 817.639C436.489 828.339 445.829 822.544 445.829 822.544C445.829 822.544 450.726 816.312 440.497 815.404C430.268 814.496 429.815 804.267 429.815 804.267C429.815 804.267 431.366 798.471 425.372 798.471C419.377 798.471 416.694 794.91 420.702 789.778C424.709 784.646 420.039 784.21 416.92 784.21C413.801 784.21 392.891 781.312 409.131 774.853C425.372 768.394 426.26 754.569 426.26 754.569C426.26 754.569 427.358 729.152 456.075 740.534C484.792 751.915 485.001 760.364 485.001 760.364C485.001 760.364 492.128 785.554 456.302 774.172C420.475 762.791 419.377 776.616 431.383 779.304C443.389 781.993 463.237 789.778 485.576 773.736C500.318 763.14 499.412 772.653 497.112 780.334C495.77 784.803 492.372 788.329 487.981 789.883C478.415 793.252 462.139 799.92 469.214 804.267C476.759 808.91 466.983 813.274 462.122 815.038C459.961 815.823 457.957 816.993 456.302 818.599C454.28 820.571 453.688 822.282 463.429 818.529C475.557 813.868 480.105 806.973 481.638 803.778C482.771 801.422 484.74 799.484 487.197 798.576C491.745 796.9 498.715 798.297 504.797 816.294C514.799 845.935 532.154 878.683 515.478 875.803C507.654 874.442 502.531 876.414 499.29 878.893C494.794 882.332 488.26 880.185 486.901 874.686C486.866 874.546 486.831 874.389 486.796 874.249C483.241 859.534 478.345 857.753 479.896 870.915C481.446 884.077 487.232 907.015 495.91 896.541C504.587 886.067 504.134 864.666 521.054 880.726C537.975 896.786 543.516 943.115 543.516 943.115C543.516 943.115 543.063 954.549 555.748 952.629C564.984 951.215 575.422 954.636 580.388 956.574C582.793 957.516 584.866 959.192 586.103 961.461C587.341 963.731 587.219 965.756 581.102 964.289C569.985 961.619 559.077 957.604 565.751 961.165C572.425 964.726 574.202 968.077 563.311 965.616C552.42 963.155 543.742 965.389 543.742 965.389C543.742 965.389 535.727 966.733 536.18 954.688C536.633 942.643 520.166 926.601 520.166 926.601C520.166 926.601 494.132 891.845 504.152 896.733C514.171 901.621 517.935 942.87 506.156 955.788C496.885 965.948 490.246 958.162 487.807 954.374C486.988 953.082 485.995 951.93 484.827 950.97C478.502 945.786 459.508 930.546 466.774 940.636C475.452 952.663 499.691 959.14 456.546 973.175C419.22 985.307 435.478 1014.95 440.549 1022.75C441.508 1024.22 442.187 1025.82 442.588 1027.53C444.069 1033.89 446.753 1048.66 440.305 1050.05C432.08 1051.83 407.824 971.831 466.774 972.284C525.724 972.738 631 971.08 631 971.08" stroke="#A90017" stroke-opacity="0.3" stroke-width="3" stroke-miterlimit="10"/>
</g>
<path d="M33.5 972.5H-1" stroke="#A90017" stroke-opacity="0.3" stroke-width="3"/>
<path d="M628.247 970.862C672.664 973.697 728.891 933.94 598.468 752.232C529.312 673.155 464.6 529.8 759 589C1053.4 648.2 1070.33 534.334 1042 470C1028.57 439.5 995.239 427 997 499C998.761 571 1065.84 619.449 1127 535.5C1178 465.5 1194 320.5 1162.5 176C1156.29 147.5 1116.5 131.824 1116.5 218C1116.5 295.5 1235.5 406.5 1439 1.5" stroke="#A90017" stroke-opacity="0.3" stroke-width="3"/>
<defs>
<clipPath id="clip0_206_25">
<rect width="640" height="413" fill="white" transform="translate(31 721)"/>
</clipPath>
</defs>
</svg>
