<svg width="494" height="488" viewBox="0 0 494 488" fill="none" xmlns="http://www.w3.org/2000/svg">
<g clip-path="url(#clip0_78_24)">
<path d="M494 487.1H331.915C327.971 487.1 324.333 485.101 322.19 481.788C316.192 472.444 306.647 452.494 321.109 436.217C337.047 418.283 340.847 400.368 341.712 394.264C341.964 392.464 342.36 390.681 342.846 388.935C349.132 366.14 385.223 226.868 334.598 202.687C322.208 198.366 314.428 188.553 310.123 181.188C307.26 176.273 306.035 170.601 306.629 164.948C309.889 134.05 318.21 12.4239 248.153 2.2689C178.186 -7.86813 172.891 41.9888 172.693 55.0067C172.657 57.6175 173.341 60.2462 174.944 62.3169C177.321 65.4138 181.482 66.9443 186.848 53.1521C194.574 33.2922 208.748 56.6272 211.521 61.4886C211.9 62.1368 212.296 62.767 212.764 63.3612C216.492 68.0966 233.403 87.7225 255.519 85.0217C280.66 81.9607 280.66 89.3069 280.047 93.6102C279.435 97.9135 285.594 137.597 270.646 122.995C269.71 122.077 268.125 122.563 267.891 123.841C266.09 133.6 258.742 162.697 233.457 176.345C206.641 190.821 195.763 169.179 193.476 163.525C193.134 162.697 192.719 161.905 192.215 161.184C188.415 155.711 172.243 128.757 177.664 73.9844C177.664 73.9844 177.555 189.867 150.559 230.091C148.992 232.414 147.786 234.934 147.065 237.635C141.879 256.991 119.097 334.432 90.6057 316.697C77.729 306.272 83.8702 293.398 83.8702 293.398L84.1043 293.002C84.8067 291.85 85.6351 290.751 86.7517 289.995C88.1384 289.023 90.1555 285.404 87.5441 271.954C83.8702 252.958 96.747 185.528 137.196 185.528C157.421 185.528 165.705 190.893 168.929 196.259C171.378 200.328 171.144 205.478 168.785 209.601C160.969 223.339 126.913 286.844 158.051 298.313C184.885 308.198 190.036 318.443 190.973 322.657C191.513 325.069 192.665 327.32 194.466 329.031C198.158 332.524 203.867 333.478 205.866 309.333C208.928 272.548 211.377 176.327 201.58 218.009C191.783 259.692 210.783 330.795 233.457 275.627C251.466 231.82 262.92 182.593 266.864 164.191C267.243 162.391 269.8 162.373 270.232 164.155C276.139 189.399 293.555 272.944 278.517 323.251C278.03 324.889 280.029 326.114 281.272 324.943L296.436 310.593C298.093 309.027 298.993 306.848 298.885 304.579C298.291 290.013 297.138 234.917 312.537 225.374C330.312 214.336 330.924 196.565 308.863 195.953C286.801 195.341 298.435 237.023 298.435 237.023C298.435 237.023 311.312 307.514 294.761 339.996C278.21 372.478 285.558 382.291 285.558 382.291C285.558 382.291 307.008 392.104 295.373 420.912C283.739 449.721 266.558 444.823 252.457 421.524C238.355 398.225 227.316 409.875 227.316 409.875C227.316 409.875 218.113 415.997 208.928 406.202C199.743 396.407 193.602 395.777 193.602 395.777C193.602 395.777 174.44 382.147 201.112 389.349C227.784 396.551 205.308 397.127 196.826 392.266C188.343 387.404 182.112 380.616 182.112 380.616C182.112 380.616 171.991 371.721 191.153 376.637C210.315 381.552 210.621 387.98 193.602 381.84C176.583 375.701 162.482 362.845 162.482 362.845C162.482 362.845 152.54 352.582 180.203 362.539C207.865 372.496 199.113 373.882 187.01 369.579C174.908 365.275 157.889 359.766 158.195 353.176C158.501 346.586 166.48 345.668 177.195 347.81C187.911 349.953 219.644 346.73 219.644 346.73C219.644 346.73 265.316 360.666 272.213 372.172C279.111 383.677 227.46 347.198 227.46 347.198C227.46 347.198 221.174 342.301 207.541 342.139C193.908 341.977 187.317 337.241 187.317 337.241C187.317 337.241 178.492 330.957 181.193 342.103C181.518 343.453 180.509 344.749 179.122 344.749C178.816 344.749 178.582 344.515 178.564 344.209L178.15 326.258C178.132 325.466 177.501 324.817 176.691 324.799C161.905 324.475 36.9195 321.126 53.6503 303.535C71.4256 284.845 70.6692 293.416 70.6692 293.416C70.6692 293.416 69.4986 321.468 10.9318 297.305C10.3015 297.053 9.8152 297.881 10.3555 298.277C20.909 306.11 46.5005 327.014 30.2019 334.792C19.7024 339.798 12.7507 340.608 8.4825 340.212C4.21425 339.816 0.468282 335.927 0.936528 331.497C1.33274 327.698 4.52041 323.305 15.6323 320.856C32.0929 317.219 37.1176 326.708 38.6124 331.876C39.0806 333.478 38.0721 335.116 36.4332 335.405C28.8872 336.719 8.93274 340.932 12.5526 348.296C17.001 357.335 33.0834 355.661 33.0834 355.661C33.0834 355.661 63.2853 351.988 42.8986 351.375C29.7697 350.979 23.7005 354.976 21.0351 357.857C18.5318 360.576 19.5583 365.023 23.0161 366.266C26.474 367.508 33.1555 367.706 45.492 364.393C74.6133 356.579 55.7214 357.389 45.7981 361.945C35.8749 366.5 20.819 371.757 34.7583 374.818C48.6977 377.879 57.4503 370.533 57.4503 370.533C57.4503 370.533 68.4901 405.319 98.8361 405.626C110.02 405.788 113.712 403.627 113.712 403.627C113.712 403.627 114.144 403.519 114.666 403.105C116.251 401.898 115.801 399.378 113.928 398.693L95.3242 391.743C93.5053 391.059 92.2086 389.421 92.0105 387.476C90.9839 377.519 85.509 348.422 57.4503 370.515C57.4503 370.515 68.7962 361.854 62.5109 360.702C62.5109 360.702 75.7119 357.371 68.7962 352.114C59.1972 344.821 51.6332 351.195 51.6332 351.195C51.6332 351.195 73.8569 353.95 74.019 346.748C74.1811 339.546 65.7346 338.628 65.7346 338.628C65.7346 338.628 51.0209 336.305 43.8531 336.467C42.7725 336.485 42.1062 337.619 42.5925 338.573C47.491 348.404 72.0019 392.464 121.384 400.818C122.086 400.944 122.753 401.16 123.383 401.484C131.793 405.986 194.25 439.566 210.927 453.628C211.882 454.438 213.322 453.772 213.322 452.512V415.997" stroke="#3EAD52" stroke-opacity="0.4" stroke-width="3" stroke-miterlimit="10"/>
</g>
<defs>
<clipPath id="clip0_78_24">
<rect width="494" height="488" fill="white"/>
</clipPath>
</defs>
</svg>
