<svg width="454" height="684" viewBox="0 0 454 684" fill="none" xmlns="http://www.w3.org/2000/svg">
<g clip-path="url(#clip0_55_24)">
<path d="M253.109 639.609C253.109 639.609 279.801 637.343 278.099 585.153C276.398 532.963 270.709 450.146 270.709 450.146C270.709 450.146 269.574 399.656 225.849 393.423C182.124 387.191 153.73 377.543 178.704 320.254C203.678 262.966 173.599 222.123 173.599 222.123C173.599 222.123 83.8635 168.801 87.8507 283.395C87.8507 283.395 75.6724 279.996 87.7172 310.056C99.7621 340.117 99.2115 318.571 99.2115 318.571L108.304 351.465L112.841 316.288C112.841 316.288 129.307 394.573 68.5489 399.672C7.79082 404.771 1.51816 436.132 0.950953 468.109C0.383745 500.086 0.950955 624.312 25.9415 637.359C50.9321 650.407 50.9321 665.154 50.9321 665.154C50.9321 665.154 56.404 683.8 50.4316 683.167C44.4592 682.534 51.7161 656.572 51.7161 656.572C51.7161 656.572 55.7867 629.311 60.4411 626.361C69.4164 620.696 68.966 607.648 69.1661 601.266C69.3663 594.884 68.0985 531.713 46.5946 515.966C25.0907 500.219 32.748 478.307 41.9068 486.405C51.0655 494.504 49.781 559.158 50.4316 571.922C51.0822 584.686 46.3777 614.68 73.6371 632.977C100.896 651.273 128.156 658.288 166.059 644.891C203.962 631.494 231.438 632.343 234.641 643.408C237.844 654.473 228.885 644.891 228.885 644.891C228.885 644.891 199.924 621.279 228.669 546.61C257.413 471.941 259.331 464.076 246.769 479.173C234.207 494.27 231.221 552.776 231.221 552.776C231.221 552.776 246.769 612.764 199.491 614.897C152.212 617.03 139.483 576.388 139.483 576.388C139.483 576.388 123.451 453.012 142.203 488.105C160.954 523.198 146.674 675.518 146.674 675.518" stroke="#31A847" stroke-opacity="0.3" stroke-width="3" stroke-miterlimit="10"/>
<path d="M188.53 279.112C188.53 279.112 135.68 301.808 151.028 306.057C164.807 309.873 172.965 233.021 174.483 217.358C174.767 214.442 175.501 211.592 176.819 208.976C178.904 204.91 182.491 201.427 187.362 209.709C195.453 223.44 166.059 204.66 166.059 204.66C166.059 204.66 159.219 201.611 168.494 200.261C176.268 199.128 190.465 199.894 194.836 200.178C195.754 200.228 196.655 200.011 197.455 199.544C200.125 197.961 205.446 194.262 198.289 193.596C190.565 192.879 175.668 193.379 171.197 193.546C170.296 193.579 169.412 193.396 168.611 193.012C165.575 191.546 159.035 187.847 169.545 187.797C180.673 187.73 193.919 187.78 197.722 187.797C198.473 187.797 199.174 187.597 199.824 187.214C202.327 185.714 207.765 181.831 197.238 181.765C186.712 181.698 172.615 181.748 168.378 181.765C167.443 181.765 166.542 181.481 165.775 180.931C163.523 179.298 160.086 175.849 171.531 175.732C186.512 175.582 199.29 175.732 199.29 175.732C199.29 175.732 211.285 176.082 211.719 163.968C212.153 151.854 211.085 140.923 218.959 136.107C226.833 131.291 251.691 111.362 253.959 97.4644C256.228 83.5671 261.133 65.9039 250.69 42.4418C240.246 18.9797 218.893 7.91518 218.893 7.91518C218.893 7.91518 190.849 -7.68177 154.014 7.48194C117.179 22.6456 113.759 59.0386 113.759 59.0386C113.759 59.0386 107.87 106.979 137.398 121.293C163.44 133.924 159.019 157.803 157.601 163.268C157.45 163.818 157.284 164.351 157.033 164.868C155.882 167.284 152.279 178.032 183.676 169.934C215.072 161.835 192.117 131.691 185.26 123.126C184.043 121.593 183.359 119.727 183.308 117.777C182.925 100.114 181.707 13.6474 194.736 42.875C201.643 56.2891 182.224 67.7868 176.969 70.5863C175.818 71.2028 174.767 71.9194 173.766 72.7525C166.276 79.018 142.169 103.397 193.318 122.493C194.102 122.793 194.87 123.176 195.554 123.659C199.507 126.442 209.367 135.59 170.446 137.04" stroke="#31A847" stroke-opacity="0.3" stroke-width="3" stroke-miterlimit="10"/>
</g>
<path d="M453.999 528.001C411.332 522.501 343.5 565 264.999 599.001C237.956 610.714 223 646.501 254.499 639.501" stroke="#31A847" stroke-opacity="0.4" stroke-width="3"/>
<defs>
<clipPath id="clip0_55_24">
<rect width="279" height="684" fill="white"/>
</clipPath>
</defs>
</svg>
