<svg width="163" height="113" viewBox="0 0 163 113" fill="none" xmlns="http://www.w3.org/2000/svg">
<g clip-path="url(#clip0_117_204)">
<path d="M0 108.745H18.6017C19.273 108.745 19.7765 108.111 19.6411 107.433L13.28 76.1806C13.1067 75.3241 12.9227 74.4675 12.679 73.6277C12.3705 72.5821 12.208 70.1516 17.4215 70.2628C24.0588 70.4074 62.8971 70.2628 62.8971 70.2628C62.8971 70.2628 69.2529 69.1282 69.6698 74.8124C69.9783 79.0338 73.0317 95.7194 74.5855 104.018C75.0619 106.559 74.5963 109.157 73.4161 111.443C73.0479 112.155 73.0046 112.727 73.8167 112.727L90.4099 108.206C91.7308 107.844 91.9095 105.987 90.6806 105.375C86.0572 103.072 78.3913 99.7628 78.1044 102.928C77.6875 107.472 96.6249 104.49 96.6249 104.49C96.6249 104.49 114.182 100.48 123.055 101.598C124.457 101.776 125.626 100.547 125.486 99.1065C125.237 96.6037 124.046 93.0552 119.698 90.697C118.681 90.1464 117.484 90.0518 116.401 90.4634C110.684 92.6659 90.3124 99.9408 83.215 94.835C80.8113 93.1553 79.6257 92.6436 78.0503 92.4379C76.5885 92.2488 75.4787 91.0029 75.3813 89.4901C74.9807 83.3442 74.6829 68.5108 80.1779 60.3238C81.4555 58.4161 82.3325 56.7642 82.9064 55.3292C84.6172 51.0689 81.3689 46.4637 76.8971 46.8363C71.2289 47.3091 62.5452 50.1122 60.2715 62.4484C56.8175 81.1918 68.0131 54.3059 68.0131 54.3059C68.0131 54.3059 73.4053 40.4346 67.737 32.4867C62.0688 24.5389 60.8182 2.95335 77.9582 0.53951C90.3828 -1.21247 96.6357 6.21815 99.1315 10.4396C99.9814 11.8745 100.501 13.4875 100.718 15.1505C101.486 21.1183 104.35 38.7883 111.545 41.9474C111.919 42.1087 111.827 42.6705 111.421 42.6872C107.046 42.8318 97.4803 41.5859 90.9513 29.2275C88.3256 23.1206 89.2947 14.5999 81.553 13.6043C73.8113 12.6087 68.9768 16.5854 68.7007 21.5577C68.5058 25.0394 69.3991 26.4966 69.9513 27.0639C70.4223 27.5423 70.8121 28.104 71.007 28.7603C71.2289 29.4945 71.3751 30.5123 71.191 31.786C70.7742 34.6281 75.7548 38.4602 75.7548 38.4602C75.7548 38.4602 78.5213 41.1577 79.761 42.8596C81.0008 44.5615 84.3248 44.9898 85.5646 43.5715C86.4145 42.6037 86.2305 46.1856 86.0302 48.566C85.9544 49.4893 85.8244 50.4126 85.6241 51.3191C85.1748 53.3492 84.6605 58.6218 91.2274 59.1892C97.3936 59.7287 100.95 50.5182 102.32 45.9965C102.715 44.6839 103.998 43.8774 105.319 44.1277C108.021 44.6449 112.758 45.1566 117.923 43.9108C119.411 43.5548 120.971 44.0053 122.048 45.1177C125.464 48.6495 132.253 56.9867 132.561 67.6988C132.561 71.7144 133.054 75.3352 133.541 77.9326C133.931 79.996 134.575 81.9872 135.398 83.9116C137.179 88.0496 140.125 97.933 129.676 101.604C128.848 101.893 128.046 101.081 128.306 100.219C129.421 96.5369 130.602 88.9228 121.88 87.6157C120.673 87.4378 119.693 86.5312 119.341 85.3354C117.961 80.5967 114.896 69.0614 115.914 63.2437C115.995 62.7821 116.645 62.7932 116.694 63.2604C117.219 67.9769 119.179 79.8458 125.778 82.8937C133.644 86.5312 137.033 96.943 129.454 107.7C128.94 108.428 129.443 109.446 130.32 109.446H163.92" stroke="#F6798B" stroke-opacity="0.2" stroke-width="3" stroke-miterlimit="10"/>
</g>
<defs>
<clipPath id="clip0_117_204">
<rect width="196" height="113" fill="white"/>
</clipPath>
</defs>
</svg>
