<svg width="626" height="437" viewBox="0 0 626 437" fill="none" xmlns="http://www.w3.org/2000/svg">
<g clip-path="url(#clip0_96_91)">
<path d="M0 420.546H71.6545C74.2404 420.546 76.1798 418.094 75.6585 415.47L51.155 294.61C50.4877 291.298 49.7786 287.985 48.8402 284.737C47.6515 280.694 47.0259 271.294 67.1083 271.724C92.6754 272.284 242.282 271.724 242.282 271.724C242.282 271.724 266.765 267.337 268.371 289.319C269.559 305.644 281.321 370.171 287.306 402.263C289.141 412.093 287.348 422.137 282.802 430.978C281.384 433.731 281.217 435.946 284.345 435.946L348.263 418.459C353.351 417.061 354.039 409.877 349.305 407.511C331.496 398.606 301.967 385.809 300.861 398.047C299.256 415.62 372.203 404.091 372.203 404.091C372.203 404.091 439.833 388.583 474.013 392.907C479.414 393.595 483.918 388.841 483.376 383.27C482.417 373.591 477.829 359.869 461.083 350.749C457.162 348.619 452.554 348.254 448.383 349.845C426.361 358.363 347.887 386.497 320.548 366.751C311.288 360.256 306.721 358.277 300.653 357.481C295.022 356.75 290.747 351.932 290.372 346.081C288.829 322.314 287.682 264.949 308.848 233.288C313.77 225.91 317.148 219.522 319.359 213.973C325.949 197.497 313.436 179.687 296.211 181.128C274.377 182.956 240.927 193.797 232.168 241.504C218.863 313.99 261.989 210.015 261.989 210.015C261.989 210.015 282.76 156.371 260.926 125.635C239.092 94.8982 234.274 11.4215 300.298 2.08655C348.158 -4.68881 372.245 24.0473 381.858 40.3727C385.133 45.9221 387.135 52.1597 387.969 58.5909C390.93 81.6701 401.962 150.004 429.677 162.222C431.116 162.845 430.761 165.018 429.197 165.082C412.347 165.642 375.498 160.824 350.348 113.03C340.234 89.4134 343.967 56.4615 314.145 52.6114C284.324 48.7613 265.701 64.1402 264.638 83.3694C263.887 96.834 267.328 102.469 269.455 104.663C271.269 106.513 272.771 108.686 273.522 111.224C274.377 114.063 274.94 117.999 274.231 122.925C272.625 133.916 291.811 148.735 291.811 148.735C291.811 148.735 302.467 159.167 307.243 165.749C312.018 172.331 324.823 173.987 329.598 168.502C332.872 164.76 332.163 178.612 331.392 187.817C331.1 191.388 330.599 194.958 329.828 198.464C328.097 206.315 326.116 226.706 351.412 228.9C375.164 230.986 388.865 195.367 394.141 177.88C395.664 172.804 400.606 169.685 405.695 170.653C416.101 172.654 434.348 174.632 454.243 169.814C459.978 168.438 465.984 170.18 470.134 174.482C483.293 188.14 509.443 220.382 510.632 261.809C510.632 277.338 512.53 291.341 514.407 301.385C515.908 309.365 518.39 317.066 521.56 324.508C528.421 340.51 539.765 378.732 499.517 392.928C496.326 394.047 493.24 390.906 494.241 387.572C498.537 373.333 503.083 343.887 469.487 338.833C464.837 338.144 461.062 334.638 459.707 330.014C454.389 311.688 442.585 267.078 446.506 244.58C446.819 242.795 449.321 242.838 449.509 244.644C451.532 262.884 459.081 308.784 484.502 320.571C514.803 334.638 527.858 374.903 498.662 416.502C496.681 419.32 498.62 423.256 501.999 423.256H631.428" stroke="#F6798B" stroke-opacity="0.2" stroke-width="3" stroke-miterlimit="10"/>
</g>
<defs>
<clipPath id="clip0_96_91">
<rect width="755" height="437" fill="white"/>
</clipPath>
</defs>
</svg>
