<svg width="762" height="631" viewBox="0 0 762 631" fill="none" xmlns="http://www.w3.org/2000/svg">
<g clip-path="url(#clip0_211_35)">
<path d="M297.496 629.783H476.305C479.601 629.783 482.014 626.68 481.199 623.486C476.509 605.194 461.102 552.154 436.066 533.772C405.604 511.414 365.49 442.392 419.866 433.524C474.243 424.656 510.879 415.402 508.953 429.288C507.028 443.174 481.187 447.025 481.187 447.025C481.187 447.025 428.351 458.204 448.788 477.096C469.224 495.988 485.809 509.874 484.269 491.752C482.728 473.63 465.373 455.893 486.58 453.198C507.787 450.502 487.735 514.891 487.735 514.891C487.735 514.891 470.765 539.186 488.891 545.347C507.016 551.508 503.55 572.722 498.146 577.74C492.742 582.757 497.523 608.581 509.021 590.844C520.52 573.107 519.364 555.756 519.364 555.756C519.364 555.756 518.594 538.019 529.005 532.616C535.768 529.117 535.043 519.104 533.717 512.524C532.89 508.412 530.251 504.913 526.524 502.987C522.797 501.062 518.934 499.986 520.905 505.241C523.771 512.875 540.809 526.285 546.677 530.748C547.787 531.597 548.796 532.56 549.713 533.624C551.979 536.241 556.952 539.752 554.834 516.816C553.293 504.867 569.493 507.563 570.263 516.816C571.033 526.07 562.548 564.624 582.985 568.486C597.27 571.182 607.035 580.469 611.623 585.815C613.051 587.491 614.24 589.338 615.282 591.274C616.642 593.789 620.108 597.107 626.181 583.516C632.513 569.336 626.113 557.998 623.02 553.728C621.377 551.463 620.29 548.835 620.063 546.049C619.689 541.213 620.947 533.874 628.877 525.991C642.765 512.184 616.155 486.746 616.155 486.746C616.155 486.746 607.67 480.188 609.981 466.698C612.292 453.209 589.159 438.553 589.159 438.553C589.159 438.553 571.419 423.897 598.414 405.775C620.562 390.915 598.335 383.825 589.623 381.764C587.72 381.311 585.76 381.22 583.823 381.503C574.103 382.919 540.662 386.996 536.708 376.463C532.075 364.129 510.098 369.135 519.738 380.314C529.379 391.493 531.69 431.984 515.105 428.507C498.52 425.03 495.824 431.587 492.742 405.367C490.012 382.149 524.473 382.511 532.403 382.908C533.525 382.964 534.612 383.157 535.677 383.497C541.806 385.467 562.073 393.747 550.2 413.851C536.312 437.375 530.919 391.028 557.915 390.292C584.911 389.556 584.911 388.786 594.551 374.141C604.192 359.497 621.162 352.169 621.162 352.169C621.162 352.169 642.754 341.375 646.617 309.367C650.48 277.359 689.427 273.124 700.994 282.377C712.56 291.63 734.934 317.85 697.912 325.178C660.891 332.506 594.563 355.249 647.387 383.395C694.072 408.267 667.586 339.211 660.789 322.8C659.679 320.116 659.056 317.261 658.965 314.362C658.625 302.594 661.344 275.842 696.36 297.033C740.326 323.638 691.727 369.305 652.395 362.962C613.062 356.62 597.248 345.996 601.099 318.235C604.951 290.475 633.487 292.401 643.139 292.786C652.791 293.171 688.261 295.866 686.72 322.086C685.179 348.306 665.898 356.79 639.673 340.978C613.447 325.167 630.032 289.309 640.443 284.302C650.854 279.296 679.776 242.656 699.453 267.336C719.131 292.015 668.22 313.603 668.22 313.603C668.22 313.603 637.373 322.471 617.695 303.579C598.018 284.687 589.929 303.579 589.929 303.579C589.929 303.579 583.755 328.259 621.547 329.414C659.339 330.57 688.363 338.475 690.583 346.766C692.803 355.057 698.683 371.027 663.587 368.739C628.492 366.451 602.651 346.381 594.551 363.721C587.902 377.981 574.477 392.24 569.901 396.861C569.459 397.314 569.867 398.062 570.49 397.937C578.42 396.329 605.404 392.388 603.433 413.454C601.122 438.134 608.825 455.1 598.414 451.238C588.004 447.376 598.8 431.191 609.596 433.116C620.392 435.042 724.523 462.032 699.453 489.022C674.383 516.012 635.436 548.405 619.621 529.898C608.417 516.782 618.522 503.848 625.354 497.437C627.982 494.968 631.154 493.19 634.62 492.205C644.317 489.441 665.275 481.434 635.436 469.745C607.896 458.963 599.377 467.604 596.794 472.916C595.344 475.906 593.283 478.557 590.734 480.686C577.763 491.48 542.384 516.76 519.738 492.873C510.868 483.62 523.59 468.964 523.59 468.964C523.59 468.964 528.993 461.25 521.279 453.922C513.564 446.594 515.49 435.416 531.304 431.95C547.119 428.484 560.996 421.541 576.041 433.49C591.085 445.439 577.966 465.498 577.966 465.498C577.966 465.498 563.239 491.718 598.403 492.103C625.682 492.397 632.921 523.091 634.79 536.841C635.323 540.703 634.088 544.588 631.46 547.476C624.209 555.416 610.275 573.062 618.454 583.867C627.053 595.227 624.651 617.585 623.314 626.227C623.031 628.084 624.459 629.749 626.339 629.749H925.989" stroke="#A90017" stroke-opacity="0.2" stroke-width="3" stroke-miterlimit="10"/>
</g>
<path d="M297.497 628.094C90.3444 635.61 -213.761 583.564 227.037 315.252C778.035 -20.1384 322.863 26.3652 437.008 110.917C528.325 178.559 691.134 65.8232 761.125 1" stroke="#A90017" stroke-opacity="0.2" stroke-width="2"/>
<defs>
<clipPath id="clip0_211_35">
<rect width="628.504" height="372.029" fill="white" transform="translate(297.496 258.32)"/>
</clipPath>
</defs>
</svg>
