<svg width="214" height="252" viewBox="0 0 214 252" fill="none" xmlns="http://www.w3.org/2000/svg">
<path d="M0 250H38.0814H76.1627C77.2705 250 78.088 248.963 77.813 247.889C76.667 243.384 74.4055 232.759 76.8274 227.035C79.0965 221.661 76.6288 213.407 75.1084 209.299C74.3826 207.34 73.8784 205.312 73.6033 203.239C72.6636 196.09 71.5329 181.006 73.3207 178.376C76.3079 173.963 72.7553 159.237 69.4166 152.69C66.4982 146.951 64.4507 114.702 96.1183 110.533C97.5317 110.35 98.9604 110.693 100.19 111.417C102.658 112.858 108.64 115.083 121.697 114.55C140.682 113.772 147.444 119.74 133.401 119.481C119.359 119.222 75.6661 123.635 104.53 108.064C114.416 101.836 116.494 92.751 116.494 92.751C116.494 92.751 118.832 77.1793 128.458 79.7784C135.136 81.5772 138.528 80.0071 139.979 78.8714C141.431 77.7357 143.196 76.8744 145.037 76.4552C146.764 76.0665 148.933 75.8302 151.348 76.1427C157.33 76.9202 157.33 77.4385 161.753 72.7662C166.177 68.0939 167.476 71.2113 165.657 75.0985C163.839 78.9857 161.234 84.4431 162.8 88.5894C163.701 90.9827 160.966 93.4599 158.491 95.1367C156.283 96.623 153.739 97.5757 151.08 97.6824C148.024 97.8044 147.153 96.562 167.178 88.4598C168.606 87.8806 169.943 87.0955 171.104 86.0818C175.215 82.5223 182.969 73.2159 178.859 55.9597C173.396 32.9947 148.429 29.4962 148.429 29.4962C148.429 29.4962 143.18 31.8286 149.407 31.638C151.821 31.5618 153.479 30.8758 154.602 30.0526C156.046 29.0008 156.879 27.324 156.932 25.5404C157.078 20.7996 156.191 6.99616 141.416 2.83456C123.469 -2.22643 130.88 17.2325 134.975 20.9291C139.07 24.6258 149.407 32.4078 147.657 23.2615C145.908 14.1151 149.415 16.8361 149.415 16.8361C149.415 16.8361 163.067 31.234 142.783 29.0999C122.499 26.9657 116.647 46.2265 116.647 46.2265C116.647 46.2265 108.816 78.193 116.846 78.9171C122.53 79.4278 121.238 74.6336 120.001 71.7906C119.046 69.5955 118.519 67.2403 118.396 64.8546C117.976 56.5009 119.879 40.0222 140.445 35.7234C161.104 31.4017 171.494 46.9277 175.49 55.2814C176.865 58.1625 177.4 61.3561 177.025 64.5268C176.07 72.6138 173.824 89.2983 171.655 88.658C169.485 88.0178 169.37 92.5147 169.454 94.5269C169.492 95.4416 169.34 96.341 169.011 97.1946C168.278 99.1077 166.521 102.225 162.487 104.611C159.56 106.364 156.443 110.838 156.443 110.838C156.443 110.838 149.812 122.904 142.982 116.288C136.152 109.672 146.687 105.777 144.54 111.814C142.394 117.85 140.445 122.126 145.908 124.077C151.37 126.029 157.223 125.998 157.223 125.998C157.223 125.998 168.728 127.195 171.655 131.669C173.71 134.809 174.512 132.103 174.81 130.213C174.955 129.276 175.459 128.437 176.239 127.888C178.637 126.204 183.305 122.622 180.036 122.324C176.766 122.027 172.739 124.74 171.173 125.945C170.692 126.311 170.356 126.821 170.195 127.401C169.592 129.641 168.79 135.251 176.139 134.779C178.477 134.58 179.165 129.619 179.165 129.619L183.718 103.071C183.894 102.027 184.872 101.318 185.918 101.463L194.483 102.629C195.827 102.812 196.782 104.039 196.614 105.381L193.176 134.07C193.138 134.405 192.833 134.649 192.496 134.626L189.692 134.39L189.494 135.365L192.985 135.693C193.26 135.716 193.383 136.067 193.169 136.25C191.885 137.355 188.615 139.512 187.836 133.521C187.21 128.681 185.72 128.711 184.749 129.344C184.192 129.702 183.863 130.343 183.863 131.006C183.863 132.218 183.894 133.818 182.175 134.009L179.562 134.192C177.568 134.329 176.154 136.28 176.75 138.186C177.033 139.077 177.667 140.122 178.851 141.311C183.435 145.884 183.726 159.802 183.726 159.802C183.726 159.802 187.431 192.401 191.037 196.097C194.643 199.794 202.933 220.419 192.496 228.597C182.06 236.776 173.183 231.418 171.723 230.251C170.264 229.085 150.362 211.28 154.067 185.198C157.773 159.116 160.798 175.663 158.453 180.282C156.107 184.901 152.601 198.719 152.646 202.027C152.692 205.335 152.356 223.285 166.352 227.325C180.349 231.364 181.617 235.061 181.617 235.061C181.617 235.061 190.35 246.349 196.538 234.04C202.726 221.73 201.557 204.459 201.557 204.459C201.557 204.459 200.679 188.018 199.556 184.657C198.433 181.296 197.607 160.48 198.876 155.32C200.144 150.16 198.708 147.241 201.649 143.498C203.49 141.151 203.024 138.742 202.421 137.279C201.901 136.021 201.626 134.687 201.596 133.323L201.252 117.08C201.221 115.67 201.023 114.26 200.595 112.919C200.121 111.432 199.433 110.198 198.685 112.073C197.317 115.48 197.615 118.544 197.615 118.544C197.615 118.544 198.234 129.359 196.492 132.995C196.141 133.727 195.033 133.407 195.14 132.606L199.281 100.701C199.426 99.5574 198.753 98.4751 197.661 98.1016C196.568 97.7282 194.842 97.53 192.107 97.1794C185.345 96.3181 183.428 97.2251 182.839 98.3455C182.251 99.466 176.643 133.62 176.643 133.62C176.643 133.62 173.519 141.646 183.955 139.07C183.955 139.07 186.117 138.681 184.49 134.885C182.862 131.09 183.871 145.754 183.871 145.754C183.871 145.754 183.71 150.457 185.498 152.08C187.286 153.704 187.836 165.96 188.035 168.62C188.233 171.28 183.779 196.189 190.762 210.686C197.745 225.183 191.962 225.541 191.962 225.541C191.962 225.541 185.979 227.873 190.204 234.489C193.108 239.04 193.314 244.665 193.153 247.729C193.092 248.963 194.07 249.992 195.3 249.992L213.5 250" stroke="#A90017" stroke-opacity="0.2" stroke-width="3" stroke-miterlimit="10"/>
</svg>
