<svg width="368" height="462" viewBox="0 0 368 462" fill="none" xmlns="http://www.w3.org/2000/svg">
<path d="M21.1145 360.625C21.1145 360.625 66.4349 399.753 115.875 376.513" stroke="#31A847" stroke-opacity="0.2" stroke-width="3" stroke-miterlimit="10"/>
<path d="M160.357 383.875C160.357 383.875 136.185 429.928 147.007 457.266C147.437 458.354 146.641 459.517 145.469 459.517H129.429C128.278 459.517 127.289 458.727 127.052 457.618C125.395 449.914 116.876 421.509 81.2584 421.701C47.7602 421.883 36.5941 446.766 33.5928 456.07C32.9259 458.119 31.0218 459.528 28.8596 459.528H15.7895C14.0791 459.528 12.6376 458.247 12.4548 456.561C11.2177 445.421 9.85151 405.301 48.8036 376.833" stroke="#31A847" stroke-opacity="0.2" stroke-width="3" stroke-miterlimit="10"/>
<path d="M145.533 356.538C145.533 356.538 147.835 384.676 122.857 388.869C121.189 389.147 119.597 388.08 119.178 386.458C116.338 375.542 109.658 336.147 161.379 336.713C164.982 336.756 168.274 338.826 169.855 342.037C171.942 346.263 174.158 352.238 172.717 356.538C170.791 362.268 185.841 362.972 192.607 363.005C194.35 363.005 195.673 364.541 195.425 366.248C193.962 376.353 187.024 404.683 156.516 376.823" stroke="#31A847" stroke-opacity="0.2" stroke-width="3" stroke-miterlimit="10"/>
<path d="M21.8469 360.968C6.86996 348.134 -14.0977 307.804 21.8469 249.154C66.7777 175.842 4.29994 144.987 13.0734 178.479C20.0922 205.272 97.7063 189.643 135.636 178.479C205.203 154.041 349.071 84.3333 368 1" stroke="#30A847" stroke-opacity="0.2" stroke-width="3"/>
<path d="M334.702 213.473C334.702 213.473 289.382 252.601 239.941 229.361" stroke="#31A847" stroke-opacity="0.2" stroke-width="3" stroke-miterlimit="10"/>
<path d="M195.46 236.724C195.46 236.724 219.632 282.777 208.81 310.114C208.379 311.202 209.176 312.365 210.348 312.365H226.387C227.538 312.365 228.528 311.576 228.765 310.466C230.421 302.762 238.941 274.358 274.558 274.55C308.056 274.731 319.223 299.614 322.224 308.919C322.891 310.968 324.795 312.376 326.957 312.376H340.027C341.738 312.376 343.179 311.096 343.362 309.41C344.599 298.27 345.965 258.15 307.013 229.681" stroke="#31A847" stroke-opacity="0.2" stroke-width="3" stroke-miterlimit="10"/>
<path d="M210.284 209.386C210.284 209.386 207.981 237.524 232.96 241.717C234.627 241.995 236.219 240.928 236.639 239.306C239.479 228.39 246.159 188.995 194.438 189.561C190.834 189.603 187.543 191.673 185.961 194.885C183.874 199.111 181.658 205.086 183.1 209.386C185.025 215.116 169.976 215.82 163.21 215.852C161.467 215.852 160.144 217.389 160.391 219.096C161.854 229.201 168.793 257.531 199.3 229.67" stroke="#31A847" stroke-opacity="0.2" stroke-width="3" stroke-miterlimit="10"/>
</svg>
