<svg width="55" height="55" viewBox="0 0 55 55" fill="none" xmlns="http://www.w3.org/2000/svg">
<g clip-path="url(#clip0_117_130)">
<path d="M27.5 55C42.6878 55 55 42.6878 55 27.5C55 12.3122 42.6878 0 27.5 0C12.3122 0 0 12.3122 0 27.5C0 42.6878 12.3122 55 27.5 55Z" fill="#F293A5" fill-opacity="0.51"/>
<path d="M6.10083 39.1902C6.10083 39.1902 9.76526 45.3758 20.815 39.5501C20.815 39.5501 27.7822 34.9259 27.6622 42.7329C27.4382 45.6087 24.8464 46.602 22.918 46.9442C21.5401 47.1877 20.1269 47.0113 18.8531 46.4379C15.9068 45.1094 11.3619 41.5667 18.1139 33.5445C19.8111 31.2544 27.8969 26.1644 27.8739 22.8758" stroke="#A91A1C" stroke-width="2" stroke-miterlimit="10"/>
<path d="M28.9536 46.1874C28.9536 46.1874 35.0792 44.9259 34.5394 36.2315C34.1106 31.8613 30.755 29.5748 30.2592 34.9982C29.9945 37.8864 31.3407 40.4358 32.6569 42.1895C33.876 43.8144 35.5132 45.0688 37.3781 45.8716C40.1339 47.0572 44.2853 48.1828 44.5852 44.386C44.7652 42.4489 41.3866 41.3232 41.3866 41.3232C41.3866 41.3232 37.2423 40.3776 37.7821 33.0805C38.322 25.7834 36.7729 25.1076 36.7729 25.1076" stroke="#A91A1C" stroke-width="2" stroke-miterlimit="10"/>
<path d="M32.6921 12.313C32.6921 12.313 32.2423 25.7375 40.1251 23.7103C48.008 21.6831 42.738 18.3504 42.738 18.3504C42.738 18.3504 41.1607 17.3148 41.8823 14.9718C42.6039 12.6288 40.1251 10.4217 40.1251 10.4217C40.1251 10.4217 35.665 5.96154 29.8552 9.02612C24.0454 12.0907 23.5937 13.982 25.395 17.2689C27.1964 20.5558 32.918 25.1076 32.6022 20.4217C32.2864 15.7357 32.6921 12.313 32.6921 12.313Z" stroke="#A91A1C" stroke-width="2" stroke-miterlimit="10"/>
<path d="M34.9451 14.8342C34.9451 14.8342 36.9723 13.3028 38.5937 14.8342C38.5937 14.8342 38.5037 13.0328 37.1064 12.8529L37.4663 13.4386C37.4663 13.4386 35.3033 13.3028 34.9434 14.8342H34.9451Z" fill="#A91A1C"/>
<path d="M44.3294 20.1094C44.3294 20.1094 40.3104 19.3949 43.2356 22.4982" stroke="#A91A1C" stroke-width="2" stroke-miterlimit="10"/>
</g>
<defs>
<clipPath id="clip0_117_130">
<rect width="55" height="55" fill="white"/>
</clipPath>
</defs>
</svg>
